<svg width="468" height="542" viewBox="0 0 468 542" fill="none" xmlns="http://www.w3.org/2000/svg">
<path d="M465.5 134L236 3L2.5 134V403.5L236 538.5L465.5 403.5V134Z" stroke="black" stroke-width="5"/>
<path d="M436 148.5L236 33L32 148.5V385L236 503.5L436 385V148.5Z" stroke="black" stroke-width="5"/>
<path d="M216.3 271.6C232.633 269.267 247.683 268.1 261.45 268.1L257.95 186.55C252.35 196.583 244.417 212.683 234.15 234.85C225.283 253.75 219.333 266 216.3 271.6ZM320.95 396.9C321.883 400.4 320.95 403.783 318.15 407.05C315.35 410.083 311.5 412.533 306.6 414.4C301.933 416.5 297.5 417.55 293.3 417.55C286.533 417.55 282.683 415.45 281.75 411.25C273.35 377.883 267.167 338.217 263.2 292.25C242.2 292.017 221.317 294 200.55 298.2C178.617 334.833 158.2 368.55 139.3 399.35C137.433 402.617 133.583 405.417 127.75 407.75C121.683 409.85 116.083 410.9 110.95 410.9C104.417 410.9 101.15 409.15 101.15 405.65C101.15 404.25 101.617 402.733 102.55 401.1C121.217 368.433 138.483 338.567 154.35 311.5L148.4 313.6C144.667 315 141.283 315.7 138.25 315.7C135.217 315.7 132.883 315 131.25 313.6C129.383 312.2 128.45 310.45 128.45 308.35C128.45 306.017 129.617 303.683 131.95 301.35C134.05 298.783 137.2 296.567 141.4 294.7C152.367 289.8 162.167 285.95 170.8 283.15C183.4 261.45 196.817 236.833 211.05 209.3C227.383 177.8 241.15 153.183 252.35 135.45C253.05 134.517 253.983 133.583 255.15 132.65L254.8 130.9C254.8 126.7 257.717 122.967 263.55 119.7C269.617 116.2 275.683 114.45 281.75 114.45C289.217 114.45 293.067 117.25 293.3 122.85L294.35 146.3C296.45 202.533 299.133 249.9 302.4 288.4C305.9 326.667 312.083 362.833 320.95 396.9Z" fill="black"/>
<path d="M242 127.5L243 123.5C243 123.5 172.5 109.5 114 187C55.5 264.5 116 352 116 352L129.5 327.5C114.846 318.648 110.999 311.921 120.5 294.5C125.626 286.745 133.985 282.109 162 272.5C192.358 215.204 209.518 183.187 242 127.5Z" fill="black" stroke="black"/>
<path d="M329.5 377C314.469 301.479 310.099 248.832 307 143C307 143 374.5 182 378.5 258C382.5 334 329.5 377 329.5 377Z" fill="black" stroke="black"/>
<path d="M251 305.5C234.616 306.162 225.422 307.009 209 310L159 392C200.604 413.355 224.355 417.175 267.5 409C259.442 371.135 255.236 349.413 251 305.5Z" fill="black" stroke="black"/>
</svg>
